<mxfile host="app.diagrams.net" modified="2023-08-09T10:08:37.503Z" agent="Mozilla/5.0 (Windows NT 10.0; Win64; x64) AppleWebKit/537.36 (KHTML, like Gecko) Chrome/115.0.0.0 Safari/537.36 Edg/115.0.1901.200" version="21.6.6" etag="I2nYIwEizQmyBCObHoSH" type="github">
  <diagram name="第 1 页" id="oEuUHnBLEvRs8jWHJpRL">
    <mxGraphModel>
      <root>
        <mxCell id="0" />
        <mxCell id="1" parent="0" />
      </root>
    </mxGraphModel>
  </diagram>
</mxfile>
